<svg version="1.2" xmlns="http://www.w3.org/2000/svg" viewBox="0 0 1920 1009" width="1920" height="1009">
	<style>
		.s0 { opacity: .31;fill: #ffffff } 
		.s1 { opacity: .69;fill: #ffffff } 
		.s2 { fill: #ffffff } 
	</style>
	<path id="Preencher com Cor Sólida 3" class="s0" d="m333.5 377.25c-0.24 0.69-11.03 43.66-23.97 95.5-12.94 51.84-23.53 94.48-23.53 94.75 0 0.27 10.69 0.51 23.75 0.52l23.75 0.02c37.04-146.89 47.95-190.1 48.14-190.79 0.28-0.98-4.92-1.25-23.66-1.25-18.32 0-24.14 0.3-24.48 1.25z"/>
	<path id="Preencher com Cor Sólida 2" class="s1" d="m379.6 386.25c-1.43 5.64-12.07 48.05-23.64 94.25-11.57 46.2-21.25 84.79-21.5 85.75-0.43 1.64 1.44 1.75 29.04 1.75h29.5c0.86-6.59 1.77-11.42 2.57-15 0.81-3.58 2.01-8.3 2.67-10.5 0.67-2.2 2.46-6.59 3.99-9.75 1.52-3.16 3.27-7.89 3.89-10.5 0.61-2.61 2.36-8.58 3.87-13.25 1.52-4.68 3.23-10.3 3.81-12.5 0.57-2.2 1.95-8.05 3.05-13 1.1-4.95 3.1-12.15 4.44-16 1.56-4.5 2.68-10.57 3.13-17 0.38-5.5 1.1-12.02 1.59-14.5 0.5-2.48 0.94-7.88 0.99-12 0.05-4.13 0.77-9.3 1.61-11.5 0.83-2.2 2.16-6.25 2.95-9 0.78-2.75 2.27-7.25 3.3-10 1.04-2.75 2.55-7.02 3.37-9.5 0.82-2.48 1.78-5.29 2.13-6.25 0.6-1.64-1.18-1.75-28.76-1.75h-29.4z"/>
	<path id="Preencher com Cor Sólida 1" class="s2" d="m429.98 376.75c-0.01 0.41-10.61 42.82-23.55 94.25-12.95 51.42-23.74 94.29-23.99 95.25-0.42 1.66 5.23 1.76 106.6 2l107.03 0.25c-9.04 13.15-15.72 20.73-21.07 25.76-5.23 4.92-14.23 12.09-20 15.94-5.77 3.85-17.25 10.3-25.5 14.33-8.25 4.03-20.85 9.43-28 12-7.15 2.56-18.18 6.15-24.5 7.98-6.33 1.82-17.24 4.59-24.26 6.15-7.02 1.56-12.75 3.18-12.75 3.59 0.01 0.41 9.91 15.6 22.01 33.75 12.1 18.15 22.45 33.23 23 33.5 0.55 0.27 4.26-0.69 8.25-2.15 3.99-1.46 12.09-5.06 18-8 5.91-2.94 13.34-7 16.5-9.02 3.16-2.02 9.12-6.15 13.25-9.18 4.12-3.04 12.39-10.27 18.36-16.08 5.97-5.82 13.58-13.95 16.92-18.07 3.33-4.13 9.18-12.23 13-18 3.82-5.77 10.24-17.25 14.27-25.5 4.03-8.25 8.9-19.27 10.82-24.5 1.91-5.23 14.99-55.51 29.05-111.75 14.07-56.24 25.58-102.48 25.58-102.75 0-0.27-53.77-0.5-119.5-0.5-65.73 0-119.51 0.34-119.52 0.75z"/>
	<path id="Camada 1" fill-rule="evenodd" class="s2" d="m1328 286h43l0.5 148.5h2.39c2.02 0 3.2-1.59 7.74-10.5 2.94-5.77 8.28-14.21 11.86-18.75 3.58-4.54 9.82-11.06 13.88-14.5 4.05-3.44 11.13-8.51 15.75-11.27 4.77-2.86 13.12-6.6 19.38-8.69 6.05-2.02 15.05-4.21 20-4.86 5.37-0.72 13.64-0.96 20.5-0.6 6.59 0.34 15.13 1.52 20 2.77 4.67 1.19 11.88 3.59 16 5.33 4.13 1.73 11.33 5.63 16 8.67 4.67 3.03 11.59 8.42 15.37 11.96 3.78 3.54 9.07 9.37 11.76 12.94 2.69 3.57 7.13 10.89 9.88 16.25 2.74 5.36 5.89 10.2 6.99 10.75 1.1 0.55 3.24 0.99 4.75 0.97 1.51-0.01 3.55-0.8 4.53-1.75 1.63-1.57 1.78-4.13 1.72-57.22h44v192h-44v-28c0-23.56-0.24-28.24-1.5-29.5-0.83-0.82-2.4-1.73-3.5-2-1.1-0.27-3.24 0.07-4.75 0.76-1.91 0.87-4.13 3.86-7.25 9.76-2.47 4.68-6.74 11.65-9.48 15.49-2.74 3.85-7.69 9.7-11 13.02-3.31 3.31-8.72 8.01-12.02 10.44-3.3 2.43-9.15 6.11-13 8.19-3.85 2.07-10.26 4.91-14.25 6.3-3.99 1.4-10.51 3.28-14.5 4.18-4.74 1.08-12.1 1.67-21.25 1.71-7.79 0.04-16.66-0.5-20-1.21-3.3-0.7-9.6-2.43-14-3.84-4.4-1.42-10.92-4.05-14.5-5.85-3.58-1.8-9.88-5.65-14-8.56-4.13-2.91-10.42-8.27-14-11.9-3.58-3.63-8.82-9.95-11.65-14.04-2.83-4.1-6.76-10.83-8.73-14.95-2.31-4.86-4.47-7.94-6.1-8.75-1.39-0.69-3.31-1.25-4.27-1.26-0.96 0-2.76 0.67-4 1.5-1.24 0.83-4.22 5.45-6.62 10.26-2.41 4.81-7.07 12.35-10.37 16.75-3.29 4.4-8.64 10.43-11.88 13.39-3.23 2.96-8.58 7.32-11.88 9.68-3.3 2.36-10.28 6.33-15.5 8.82-5.22 2.49-13.1 5.46-17.5 6.59-4.4 1.13-12.05 2.54-17 3.14-5.01 0.61-12.99 0.8-18 0.43-4.95-0.37-12.6-1.5-17-2.52-4.4-1.01-11.6-3.23-16-4.91-4.4-1.69-11.83-5.43-16.5-8.31-4.67-2.87-12.26-8.85-16.85-13.27-4.6-4.42-10.53-10.96-13.18-14.54-2.65-3.58-6.84-10.55-9.29-15.5-3.07-6.18-5.29-9.39-7.08-10.25-1.43-0.69-3.39-1.27-4.35-1.29-0.96-0.03-2.75 0.76-3.97 1.75-1.22 0.98-4 5.39-6.16 9.79-2.17 4.4-6.61 11.6-9.86 16-3.26 4.4-8.81 10.71-12.34 14.02-3.53 3.31-9.12 7.87-12.42 10.14-3.3 2.26-9.6 5.93-14 8.15-4.4 2.21-11.83 5.15-16.5 6.52-4.67 1.37-13.45 3.05-19.5 3.73-8.45 0.95-13.44 0.98-21.5 0.11-5.78-0.62-14.55-2.3-19.5-3.72-4.95-1.43-12.83-4.47-17.5-6.76-4.67-2.29-11.88-6.68-16-9.76-4.12-3.08-10.44-8.71-14.02-12.51-3.59-3.81-8.51-9.84-10.94-13.42-2.42-3.58-6.24-10.24-8.47-14.8-2.63-5.37-4.78-8.5-6.07-8.84-1.22-0.32-2.62 0.19-3.59 1.31-0.95 1.09-2.1 5.68-2.85 11.33-0.69 5.23-2.74 15.35-4.55 22.5-1.81 7.15-5.3 17.95-7.77 24-2.46 6.05-5.96 13.7-7.78 17-1.83 3.3-5.91 9.83-9.08 14.5-3.17 4.67-9.05 12.06-13.07 16.41-4.02 4.35-10.91 10.72-15.31 14.15-4.4 3.44-12.27 8.78-17.5 11.87-5.23 3.09-14 7.38-19.5 9.53-5.5 2.15-13.83 5.01-18.5 6.37-4.67 1.35-14.12 3.43-21 4.6-6.87 1.18-19.02 2.42-27 2.75-7.98 0.33-17.54 0.32-28-0.68v-27c0-21.15 0.27-26.91 1.25-26.59 0.69 0.22 7.1 0.93 14.25 1.58 7.27 0.66 17.63 0.89 23.5 0.53 5.77-0.36 14.77-1.3 20-2.11 5.23-0.8 13.55-2.61 18.5-4.02 4.95-1.41 12.15-4.01 16-5.78 3.85-1.77 10.26-5.33 14.25-7.92 3.99-2.58 10.09-7.5 13.55-10.94 3.47-3.44 7.29-7.71 8.5-9.5 1.21-1.79 1.75-3.25 1.2-3.25-0.55 0-2.24 0.64-3.75 1.42-1.51 0.77-6.58 2.53-11.25 3.91-4.67 1.37-13.45 3.05-19.5 3.73-8.49 0.96-13.39 0.98-21.5 0.09-5.77-0.63-13.88-2.08-18-3.21-4.13-1.14-11.55-3.98-16.5-6.31-4.95-2.33-11.92-6.24-15.5-8.67-3.58-2.44-9.39-7.13-12.92-10.44-3.53-3.31-9.09-9.62-12.36-14.02-3.27-4.4-7.9-12.05-10.29-17-2.4-4.95-5.53-13.27-6.96-18.5-1.9-6.94-2.76-13-3.18-22.5-0.36-8.16-0.11-16.17 0.66-21.5 0.68-4.68 2.37-12.1 3.76-16.5 1.39-4.4 4.11-11.15 6.03-15 1.93-3.85 5.68-10.15 8.33-14 2.65-3.85 8.55-10.64 13.12-15.08 4.57-4.44 11.23-10.04 14.81-12.44 3.58-2.4 10.33-6.14 15-8.32 4.67-2.17 12.77-5.08 18-6.48 8.4-2.24 11.47-2.54 26.5-2.54 15.03 0 18.1 0.3 26.5 2.54 5.23 1.4 13.33 4.31 18 6.48 4.67 2.17 10.64 5.38 18 10.34v-20h45l0.25 34.75c0.24 33.89 0.3 34.76 2.25 35.05 1.63 0.25 2.65-1.14 5.49-7.5 1.91-4.29 5.68-11.18 8.36-15.3 2.69-4.12 9-11.57 14.02-16.54 5.02-4.97 12.51-11.15 16.63-13.72 4.13-2.57 11.1-6.21 15.5-8.08 4.4-1.87 12.05-4.46 17-5.75 7.81-2.05 11.26-2.35 26-2.31 14.94 0.04 18.15 0.35 26.5 2.58 5.22 1.4 13.33 4.31 18 6.47 4.67 2.17 11.88 6.26 16 9.09 4.13 2.83 11.14 8.88 15.58 13.45 4.44 4.57 9.89 11.01 12.11 14.31 2.22 3.3 5.9 9.71 8.18 14.25 3.3 6.6 4.68 8.39 6.88 8.95 1.51 0.39 3.65 0.57 4.75 0.41 1.1-0.16 2.81-1.04 3.8-1.95 0.99-0.91 3.05-4.36 4.57-7.66 1.51-3.3 4.72-8.93 7.11-12.5 2.39-3.57 6.64-9.15 9.44-12.4 2.79-3.24 8.68-8.77 13.08-12.28 4.4-3.51 12.28-8.57 17.5-11.25 5.22-2.67 13.1-5.98 17.5-7.36 4.4-1.37 12.28-3.06 17.5-3.76 5.83-0.77 13.74-1.03 20.5-0.66 6.09 0.33 14.8 1.58 19.5 2.79 4.67 1.21 12.1 3.7 16.5 5.54 4.4 1.84 11.04 5.38 21.5 12.38zm284 0.07c2.47-0.06 6.41 0.57 8.75 1.41 2.34 0.84 5.62 2.53 7.3 3.77 1.68 1.24 4.21 4.05 5.64 6.25 1.42 2.2 3.05 6.25 3.63 9 0.76 3.61 0.73 6.53-0.12 10.5-0.64 3.02-2.52 7.38-4.18 9.68-1.65 2.3-4.93 5.35-7.27 6.77-2.68 1.64-6.46 2.82-10.25 3.23-3.96 0.42-7.68 0.15-10.93-0.77-2.72-0.78-6.77-3.01-9-4.98-2.24-1.96-5.08-5.56-6.31-8-1.57-3.12-2.23-6.2-2.23-10.43 0-3.3 0.56-7.75 1.24-9.89 0.67-2.15 2.81-5.69 4.73-7.89 1.92-2.2 4.76-4.68 6.31-5.51 1.54-0.83 4.01-1.86 5.5-2.28 1.48-0.41 4.72-0.81 7.19-0.86zm-789 124.51c-3.02 0.79-8.88 3.1-13 5.12-5.53 2.71-9.63 5.8-15.62 11.74-6.58 6.53-8.89 9.68-12.15 16.56-2.21 4.68-4.59 10.98-5.29 14-0.69 3.02-1.24 9.32-1.21 14 0.03 4.68 0.82 11.43 1.76 15 0.94 3.57 3.21 9.43 5.04 13 1.83 3.57 5.22 8.75 7.53 11.5 2.31 2.75 6.73 7.02 9.83 9.5 3.1 2.48 9 6.04 13.12 7.92 4.6 2.1 10.97 3.99 16.49 4.89 7.92 1.3 10.08 1.3 18 0 5.48-0.9 11.93-2.82 16.49-4.9 4.12-1.87 10.02-5.43 13.12-7.91 3.1-2.48 7.5-6.75 9.77-9.5 2.28-2.75 5.67-7.93 7.55-11.5 1.87-3.57 4.1-9.2 4.97-12.5 0.88-3.36 1.57-10.17 1.59-15.5 0.01-5.26-0.66-12.18-1.49-15.5-0.84-3.3-3.19-9.38-5.24-13.5-2.73-5.49-5.87-9.65-11.74-15.53-6-6.01-9.91-8.96-15.52-11.69-4.12-2-10.2-4.34-13.5-5.2-3.47-0.89-10.01-1.52-15.5-1.5-5.23 0.03-11.98 0.7-15 1.5zm212.75 0c-3.16 0.78-8.79 2.93-12.5 4.78-3.71 1.86-9.45 5.59-12.75 8.3-3.5 2.87-8.22 8.25-11.32 12.89-3.29 4.93-6.19 10.8-7.62 15.45-1.27 4.12-2.6 10.2-2.97 13.5-0.36 3.3-0.15 9.37 0.47 13.5 0.62 4.12 2.28 10.43 3.68 14 1.41 3.57 4.13 8.98 6.05 12 1.92 3.02 6.26 8.2 9.65 11.5 3.69 3.59 9.37 7.68 14.11 10.16 4.37 2.29 10.87 4.93 14.45 5.86 3.64 0.95 10.24 1.69 15 1.69 4.81 0 11.32-0.74 15-1.71 3.58-0.94 9.42-3.2 13-5.03 3.58-1.83 8.57-5.05 11.1-7.15 2.53-2.1 6.47-6.07 8.76-8.82 2.28-2.75 5.47-7.48 7.1-10.5 1.62-3.02 3.87-9.1 5-13.5 1.14-4.4 2.06-11.15 2.06-15 0-3.85-0.92-10.6-2.06-15-1.13-4.4-3.71-11.15-5.74-15-2.35-4.48-6.39-9.73-11.2-14.57-5.81-5.85-9.45-8.52-16.02-11.74-4.67-2.29-11.2-4.85-14.5-5.69-3.3-0.83-9.83-1.47-14.5-1.42-4.67 0.05-11.09 0.72-14.25 1.5zm213.25-0.13c-3.03 0.77-7.75 2.37-10.5 3.55-2.75 1.19-7.7 4.08-11 6.42-3.3 2.35-8.14 6.7-10.76 9.67-2.62 2.98-6.29 8.34-8.15 11.91-1.87 3.57-4.12 8.98-4.99 12-0.88 3.02-1.88 8.65-2.23 12.5-0.43 4.84-0.1 9.62 1.07 15.5 0.93 4.68 3.22 11.65 5.08 15.5 1.86 3.85 5.43 9.59 7.93 12.75 2.5 3.16 7.14 7.77 10.3 10.24 3.16 2.47 8.45 5.82 11.75 7.45 3.3 1.62 8.7 3.67 12 4.56 3.3 0.89 10.05 1.64 15 1.67 5.42 0.03 11.59-0.62 15.5-1.64 3.58-0.94 9.65-3.32 13.5-5.31 4.8-2.47 9.53-6.14 15.02-11.66 5.94-5.97 8.98-10.01 11.69-15.56 2.06-4.21 4.41-11.23 5.36-16 1.17-5.85 1.52-10.84 1.12-16-0.32-4.13-1.74-10.88-3.14-15-1.41-4.13-4.02-9.93-5.81-12.9-1.78-2.98-6.18-8.38-9.78-12-3.59-3.63-9.21-8.17-12.5-10.09-3.28-1.92-8.88-4.57-12.46-5.89-5.04-1.86-8.97-2.47-17.5-2.73-7.2-0.23-12.9 0.14-16.5 1.06zm212.5 0.17c-3.3 0.8-9.34 3.12-13.42 5.17-4.08 2.04-10.15 6.22-13.5 9.3-3.34 3.07-7.99 8.47-10.32 12-2.33 3.52-5.4 9.78-6.82 13.91-1.56 4.56-2.8 10.83-3.15 16-0.43 6.28-0.11 10.59 1.22 16.5 0.98 4.4 3.59 11.6 5.79 16 3.05 6.09 5.94 9.91 12.1 16.01 5.85 5.78 10.19 9.05 15.6 11.75 4.13 2.05 10.42 4.48 14 5.38 3.85 0.98 10.18 1.63 15.5 1.58 6.24-0.05 11.14-0.74 16-2.24 3.85-1.2 9.7-3.59 13-5.32 3.44-1.8 9.22-6.34 13.57-10.65 5.8-5.75 8.56-9.5 11.79-16.01 2.83-5.7 4.72-11.3 5.74-17q1.53-8.5 0.86-15.5c-0.37-3.85-1.35-9.25-2.18-12-0.83-2.75-2.86-7.7-4.52-11-1.66-3.3-4.78-8.25-6.93-11-2.16-2.75-6.49-7.14-9.63-9.75-3.13-2.62-8.17-6.08-11.2-7.71-3.03-1.62-9.1-3.87-13.5-5-5.1-1.32-10.9-2.03-16-1.97-4.4 0.05-10.7 0.75-14 1.55zm-414.5 199.43c3.03-0.02 7.19 0.41 9.25 0.96 2.06 0.54 5.62 2.68 7.91 4.74 2.29 2.06 5.06 5.77 6.15 8.25 1.45 3.27 2 6.68 2 12.5 0 5.89-0.54 9.19-2.03 12.5-1.12 2.48-3.55 5.94-5.4 7.71-1.86 1.76-5.41 3.91-7.88 4.77-2.47 0.86-6.75 1.54-9.5 1.52-2.75-0.02-6.8-0.58-9-1.24-2.33-0.7-5.89-3.1-8.53-5.73-2.93-2.93-4.99-6.12-5.84-9.03-0.72-2.48-1.3-7.2-1.3-10.5 0-3.3 0.55-8.02 1.22-10.5 0.76-2.82 2.76-6.11 5.33-8.79 2.27-2.36 5.92-4.93 8.12-5.71 2.2-0.78 6.47-1.43 9.5-1.45zm558 0.01c3.03-0.01 7.25 0.53 9.39 1.21 2.13 0.68 5.39 2.92 7.25 4.98 1.85 2.06 3.62 4.99 3.94 6.5 0.32 1.51 0.44 2.81 0.25 2.89-0.18 0.07-2.58 0.45-5.33 0.84-4.82 0.68-5.05 0.6-6.23-2.14-0.68-1.56-2.37-3.4-3.75-4.09-1.39-0.69-4.1-1.25-6.02-1.25-2.17 0-4.26 0.76-5.5 2-1.1 1.1-2 2.67-2 3.5 0 0.83 0.58 2.06 1.29 2.75 0.7 0.69 5.32 2.28 10.25 3.54 4.93 1.26 10.47 3.06 12.31 4 1.84 0.94 4.07 2.83 4.95 4.21 0.98 1.52 1.63 4.73 1.66 8.17 0.03 4.16-0.5 6.4-1.96 8.39-1.1 1.49-3.8 3.67-6 4.83-3.21 1.69-5.77 2.11-13 2.11-7.93 0-9.54-0.31-13.5-2.64-2.55-1.5-5.46-4.31-6.72-6.5-1.22-2.12-2.23-4.87-2.25-6.11-0.03-1.96 0.48-2.25 3.97-2.25 2.2 0 4.67-0.23 5.5-0.5 0.97-0.32 1.68 0.3 2 1.75 0.28 1.24 1.68 3.37 3.1 4.75 1.82 1.75 4 2.61 7.25 2.88 3.76 0.3 5.2-0.08 7.54-2 2.22-1.84 2.76-2.95 2.33-4.88-0.34-1.49-1.7-2.98-3.39-3.7-1.56-0.66-6.66-2.21-11.33-3.45-5.39-1.43-9.52-3.18-11.3-4.8-1.64-1.49-3.16-4.22-3.65-6.55-0.46-2.21-0.45-5.57 0.03-7.5 0.48-1.92 1.89-4.52 3.15-5.76 1.25-1.25 4.07-2.91 6.27-3.71 2.2-0.79 6.47-1.45 9.5-1.47zm-642 0.94h37v9h-26v12h25v9h-25v21h-11zm135.18-0.17l16.16 0.33c14.39 0.3 16.54 0.57 19.66 2.47 1.92 1.18 4.29 3.76 5.25 5.75 0.96 1.99 1.75 5.76 1.75 8.37-0.01 2.99-0.75 5.95-2 8-1.1 1.79-3.34 4.04-7.94 6.75l5.46 9c3.01 4.95 5.47 9.34 5.47 9.75 0.01 0.41-2.91 0.75-12.99 0.75l-10.5-18.03-9.5 0.03v18h-11zm67.82 0.17l16.5-0.03 5 16c2.75 8.8 5.29 15.67 5.63 15.27 0.35-0.41 1.11-2.31 1.7-4.24 0.58-1.92 2.66-8.79 8.17-27h16v51h-11l-0.18-32.5-10.7 32-9.12 0.5-10.79-33.5-0.21 33.5h-11zm95.5 0.05l15-0.06 9.25 24.76c5.09 13.61 9.25 25.09 9.25 25.5 0 0.41-2.77 0.64-12.34 0.25l-3.66-11.5h-20l-3.65 11.5-6.42 0.34c-5.09 0.27-6.3 0.06-5.84-1 0.32-0.73 4.6-12.24 9.5-25.56zm48.5-0.05h43v10h-16v41h-11v-41h-16zm68 0h10.99l0.51 37.17 2.75 2.42c1.98 1.73 3.94 2.41 7 2.41 2.34 0.01 5.26-0.67 6.5-1.5 1.24-0.82 2.7-3.19 3.25-5.25 0.54-2.07 0.99-10.84 1-35.25h11l-0.02 18.75c-0.02 15.83-0.3 19.37-1.81 22.75-0.99 2.2-3.11 4.94-4.73 6.09-1.62 1.16-4.51 2.63-6.44 3.27-1.92 0.64-5.75 1.16-8.5 1.15-2.75-0.01-6.69-0.47-8.75-1.02-2.06-0.55-5.17-2.23-6.92-3.74-1.74-1.52-3.76-4.22-4.5-6-0.95-2.32-1.33-8.72-1.33-22.25zm70 0l14.75-0.02c8.49-0.01 16.24 0.47 18.25 1.14 1.93 0.63 4.76 2.33 6.29 3.76 1.54 1.44 3.27 4.42 3.84 6.62 0.58 2.2 0.79 5.91 0.46 8.25-0.41 2.93-1.6 5.29-3.84 7.59-1.79 1.85-3.92 3.56-4.75 3.82-1.15 0.36-0.18 2.58 4.25 9.65 3.16 5.05 5.75 9.41 5.75 9.69 0 0.27-3.04 0.49-13.5 0.46l-10.02-17.46-9.48-0.5v18h-12zm83.35-0.08l14.95 0.58 8.85 23.5c4.86 12.92 9.07 24.28 9.35 25.25 0.44 1.53-0.28 1.75-12 1.79l-4-12.15-19.84 0.61-3.66 11.5h-6c-3.33 0-6-0.45-6-1 0-0.55 4.13-12.05 9.18-25.54zm-487.23 8.77c-1.3 0.24-3.61 1.64-5.12 3.12-1.52 1.48-3.31 4.71-3.99 7.19-0.72 2.62-0.97 6.58-0.6 9.5 0.35 2.75 1.47 6.35 2.5 8 1.02 1.65 3.37 3.64 5.22 4.43 1.85 0.79 4.83 1.35 6.62 1.25 1.78-0.1 4.43-0.97 5.88-1.93 1.45-0.97 3.35-3.1 4.22-4.75 1.02-1.92 1.59-5.53 1.59-10 0-4.71-0.56-8.07-1.72-10.25-0.95-1.79-2.74-3.88-3.97-4.66-1.24-0.77-3.6-1.61-5.25-1.87-1.65-0.26-4.07-0.27-5.38-0.03zm64.88 14.31c13 0.01 16.22-0.47 17.75-1.5 1.54-1.03 2.26-2.52 2.28-4.75 0.02-2.07-0.75-3.99-2.11-5.25-1.66-1.57-3.84-2.08-9.92-2.36l-7.78-0.36zm351 0c14.67 0 16.33-0.33 18-2 1.1-1.1 2.02-3.01 2.04-4.25 0.03-1.23-0.84-3.37-1.91-4.75-1.74-2.22-2.83-2.53-9.93-2.85l-7.98-0.36zm75.24-2.46l-3.24 9.46c10.08 0 13-0.22 13-0.5 0-0.27-1.4-4.44-3.1-9.25-1.71-4.81-3.18-8.84-3.26-8.96-0.08-0.12-1.61 4.05-3.4 9.25zm-269.48-0.27c-1.51 4.53-2.74 8.57-2.75 8.98 0 0.41 2.69 0.75 5.99 0.75 3.3 0 6.01-0.34 6.01-0.75 0.01-0.41-1.13-4.12-2.53-8.25-1.4-4.12-2.87-7.83-3.26-8.23-0.4-0.4-1.95 2.98-3.46 7.5z"/>
</svg>